<?xml version="1.0" encoding="utf-8"?>
<!-- Generator: Adobe Illustrator 26.0.3, SVG Export Plug-In . SVG Version: 6.00 Build 0)  -->
<svg version="1.1" id="Layer_1" xmlns="http://www.w3.org/2000/svg" xmlns:xlink="http://www.w3.org/1999/xlink" x="0px" y="0px"
	 viewBox="0 0 75.3 51.2" style="enable-background:new 0 0 75.3 51.2;" xml:space="preserve">
<style type="text/css">
	.st0{fill:#FFFFFF;}
	.st1{fill:#C22133;}
	.st2{fill:#0C233E;}
	.st3{fill:#EEB111;}
</style>
<g id="Scarlet_Reverse_Tomahawk">
	<path class="st0" d="M66,24.5c0-0.1,0-0.1-0.1-0.2c-0.1-0.3-0.2-0.6-0.4-0.9c-0.5-0.9-1.3-1.5-1.9-1.9l-0.5-0.4
		c0,0-0.2-0.3-0.2-0.3c-0.1-0.1-0.2-0.3-0.4-0.5c0.6-1,0.7-1.9,0.7-2.4c-0.1-1.2-0.8-2.3-1.9-2.8c-1.1-0.6-2.4-0.5-3.8,0
		c-0.6-1.8-1.8-2.5-2.4-2.9c0-0.1-0.1-0.2-0.1-0.2c-0.3-1-1-3-3-4c-0.4-0.2-0.5-0.3-0.8-0.6c0,0-0.3-0.3-0.4-0.4
		c-0.2-0.2-0.5-0.6-1.5-0.9l-2.2-0.7l-0.6,2.2c-0.3,1.2-0.1,2.2,0.1,2.9c0,0,0.1,0.3,0.1,0.4c0,0.1-0.1,0.2-0.1,0.2l-0.4,0.8l0,0.1
		c-0.5,1.3-0.3,2.2,0.3,4.2c0,0,0,0.1,0.1,0.2c0,0.1-0.1,0.2-0.1,0.2c-0.4,1.1-0.1,2.1,0.1,2.9c0,0,0.2,0.6,0.2,0.6
		c-1.9,0.9-35.9,17.6-36.7,18c0,0,0,0,0,0s0,0,0,0c-2.4,1.1-2.9,3.4-2.2,5.1c1.2,2.8,3.5,3,5.3,2.3C14.6,45,38.6,33.1,48,28.4
		c0.1,0.4,0.1,0.9,0.3,1.3c0.2,0.5,0.5,1.1,0.8,1.6c0,0.4,0,0.9,0.1,1.3c0.1,0.3,0.1,0.5,0.2,0.8c0.5,1.6,1.5,2.3,2.2,2.5
		c1.2,0.4,2.6,0.1,4-1c1.7-0.2,3.5-1,4.9-2.1c1.6-0.2,2.9-1.6,3.5-2.3c0,0,0,0,0,0c0,0,0.1,0,0.1,0l1.1-0.4l0.2-0.1
		c0.7-0.4,1.9-1,2.1-2.5c0.1-0.4,0-0.8-0.1-1.2C67,25.4,66.3,24.8,66,24.5 M66.4,27.4c-0.1,1-1,1.5-1.6,1.8l-0.2,0.1l-0.8,0.3
		c-0.3,0.1-0.4,0.1-0.4,0.2l-0.1,0.2c-0.6,0.7-1.8,2.1-3.3,2c-1.4,1.1-3.1,1.9-4.8,2.1c-0.7,0.6-2,1.5-3.3,1
		c-0.6-0.2-1.3-0.7-1.6-1.9c-0.1-0.2-0.1-0.4-0.2-0.6c-0.1-0.5-0.1-0.9,0-1.4c-0.5-0.5-0.8-1.1-1-1.7c-0.3-0.9-0.3-1.8-0.3-2.5
		c-7.5,3.7-34.7,17.2-35.8,17.7c-0.8,0.3-2.9,0.9-4.1-1.7c-0.4-1-0.3-2.8,1.7-3.8l0,0l0,0c0.4-0.2,36.5-17.8,37.3-18.3
		c0-0.2,0-0.4,0-0.8l-0.2-0.8c-0.2-0.7-0.4-1.5-0.2-2.3l0.1-0.3c0,0,0.1-0.2,0.1-0.2c0,0,0-0.1-0.1-0.6c-0.7-2.1-0.7-2.6-0.3-3.5
		l0-0.1l0.3-0.7c0.2-0.3,0.2-0.5,0.2-0.6l-0.1-0.6c-0.1-0.6-0.3-1.4-0.1-2.4l0.4-1.3L49.4,7c0.7,0.3,0.9,0.5,1,0.6l0.4,0.4
		c0.3,0.3,0.4,0.5,1.1,0.9c1.7,0.9,2.2,2.5,2.5,3.5c0,0,0.1,0.4,0.2,0.5c0.1,0,0.2,0.2,0.2,0.2c0.6,0.4,1.6,0.9,2.1,2.5
		c0,0.1,0,0.1,0.1,0.2c0.1,0.1,0.4,0.3,0.4,0.3c0.1,0.1,0.2,0.1,0.3,0.2c1.3-0.6,2.5-0.7,3.5-0.3c0.8,0.4,1.3,1.1,1.3,2
		c0,0.5-0.1,1.5-1,2.5c0.4,0.3,0.7,0.7,0.9,1l0.4,0.4l0.5,0.4c0.5,0.4,1.2,0.8,1.6,1.6c0.2,0.3,0.2,0.5,0.3,0.7
		c0.1,0.2,0.1,0.3,0.1,0.4c0,0,0,0,0,0c0,0,0.1,0.1,0.1,0.1l0.1,0.1c0.4,0.3,0.8,0.8,1,1.4C66.4,26.8,66.5,27.1,66.4,27.4"/>
	<path class="st1" d="M58.1,19.7c-0.1-0.1-0.1-0.2-0.2-0.3c0,0,0,0,0,0c0,0,0,0,0,0c0,0,0,0,0,0c-0.1-0.1-0.1-0.2-0.2-0.3
		c-0.1,0.3-0.2,0.5-0.3,0.8C57.7,19.8,57.9,19.7,58.1,19.7"/>
	<path class="st1" d="M50.7,20.8c0.1,0,0.1,0.1,0.1,0.1c0.2,0.2,0.4,0.5,0.5,0.8c0.9-0.2,2-0.2,2.8-0.1l0.5,0
		c0.1-0.2,0.3-0.4,0.4-0.6c-0.7-0.2-2-0.7-2.9-1.2C51.6,20.1,51.1,20.4,50.7,20.8"/>
	<path class="st1" d="M54,18.8c0.6,0.3,1.4,0.6,1.9,0.7c0.3-0.7,0.6-1.4,0.8-2.1l-2.3,1.2C54.3,18.7,54.2,18.8,54,18.8"/>
	<path class="st1" d="M53.1,23.2c-0.1,0-0.3,0-0.4,0c-0.3,0-0.7-0.1-1,0c0,0.3,0,0.7-0.1,1.1C52.1,24,52.6,23.6,53.1,23.2"/>
	<path class="st1" d="M56.7,21.5c0.2,0,0.4-0.1,0.6-0.2c-0.2,0-0.3,0-0.5,0C56.7,21.4,56.7,21.5,56.7,21.5"/>
	<path class="st1" d="M57.7,18C57.7,18,57.7,18,57.7,18L57.7,18c0.1,0.2,0.1,0.2,0.1,0.2c0,0.1,0.1,0.3,0.2,0.4
		c0.1,0.2,0.2,0.4,0.3,0.6c0.1,0.1,0.2,0.3,0.3,0.5c0,0,0,0,0,0c0.1,0.1,0.1,0.1,0.2,0.2c0.1,0.2,0.3,0.3,0.5,0.4
		c1.1-0.7,1.7-1.6,1.7-2.3c0-0.1,0-0.2,0-0.2c-0.1-0.2-0.2-0.4-0.5-0.5C59.9,17.1,58.9,17.1,57.7,18C57.7,17.9,57.7,17.9,57.7,18
		L57.7,18z"/>
	<path class="st1" d="M38.1,27.2c0.3,0.4,0.5,0.9,0.8,1.5l0.7-2.2L38.1,27.2z"/>
	<path class="st1" d="M49.5,22.1C49.3,22,49.2,21.9,49,22c0,0,0,0,0,0l-0.8,0.4c0.5,0.8,0.9,1.5,1.2,2.7c0.1-0.1,0.2-0.1,0.3-0.1
		C50,23.9,49.9,22.6,49.5,22.1"/>
	<path class="st1" d="M16,38.1c0.3,0.2,0.6,0.6,0.8,1c0.3,0.5,0.5,1.2,0.4,1.8c5.7-2.8,12.6-6.3,20.4-10.1c-0.4-1.2-0.8-2-1.2-2.7
		L16,38.1z"/>
	<path class="st1" d="M14.2,39l-2.8,1.4c-1.2,0.6-1.2,1.4-1.1,1.8c0,0,0,0,0,0.1c0.3,0.7,0.9,1.5,2.2,1c0.2-0.1,1.2-0.6,2.9-1.4
		c0.1-0.4,0-1.1-0.3-1.8C14.8,39.5,14.5,39.1,14.2,39"/>
	<path class="st1" d="M45.5,23.7l-2.3,1.1c0.5,0.3,1.5,0.7,1.7,0.8C45,25.3,45.3,24.3,45.5,23.7"/>
	<path class="st1" d="M46.4,26.5c0.5-0.2,0.9-0.5,1.3-0.7c-0.2-0.6-0.4-1.1-0.6-1.5L46.4,26.5z"/>
	<path class="st1" d="M43.3,28c0.4-0.2,0.8-0.4,1.1-0.5l-1.6-0.8C43,27.1,43.2,27.5,43.3,28"/>
	<path class="st1" d="M63.9,25.6c0-0.1,0-0.2-0.1-0.3c0-0.1,0-0.2-0.1-0.3c0-0.1-0.1-0.3-0.2-0.4c-0.3-0.5-0.7-0.8-1.2-1.1
		c0,0-0.7-0.5-0.7-0.5l-0.5-0.6c-0.2-0.3-0.4-0.5-0.8-0.8c-1.2,0.9-3.1,1.6-4.7,1.7c-1.1,1.5-2.7,2.6-5.2,3.5c0,1.3,0,2.6,1.2,3.7
		l0.1,0l0,0.5c-0.1,0.6-0.2,0.9-0.1,1.3c0.2,0.8,0.4,1.3,0.9,1.4c0.5,0.2,1.3-0.2,2.2-1l0.1,0l0.1,0c2.5-0.1,4.4-1.7,4.8-2.2
		l0.1-0.1l0.1,0c0.8,0.3,1.9-0.9,2.4-1.5l0.2-0.2c0.4-0.4,0.8-0.5,1.2-0.6L64,28l0.2-0.1c0.4-0.2,0.8-0.4,0.8-0.7c0-0.1,0-0.1,0-0.2
		c-0.1-0.2-0.2-0.4-0.5-0.7C64.1,26.1,63.9,25.9,63.9,25.6 M52.2,29.1c-0.4-0.6,0-1.1,0.3-1.5l0.3-0.5c0.1-0.1,0.2-0.6-0.1-0.7
		c-0.1-0.1-0.1-0.2-0.1-0.3c0-0.1,0.2-0.1,0.3-0.1c0.5,0.2,0.5,0.8,0.3,1.2l-0.3,0.5c-0.3,0.4-0.5,0.7-0.3,1c0.1,0.1,0,0.2,0,0.3
		C52.4,29.2,52.2,29.2,52.2,29.1 M56.8,29.9l-0.2,0.3l0,0c-0.2,0.2-0.4,0.1-0.6,0.1c-0.2,0-0.3,0-0.4,0.1l-0.4,0.4l-0.5,0.5
		c-0.5,0.3-1.3,0.2-1.7-0.3c-0.1-0.1-0.1-0.2,0-0.3c0.1-0.1,0.2,0,0.3,0c0.3,0.4,0.8,0.5,1.2,0.3l0.4-0.4l0.5-0.4
		c0.2-0.1,0.4-0.1,0.6-0.1c0.2,0,0.3,0,0.4-0.1l0.1-0.1l0,0c0,0,0.2-0.2,0.3-0.1C57,29.8,56.8,30,56.8,29.9 M57.7,27.4
		c-0.1,0-0.2,0.1-0.3,0c-0.2-0.1-0.7-0.4-0.7-0.9c0.1-0.8-0.2-1.5-0.7-1.9c-0.1-0.1-0.1-0.2,0-0.3c0.1-0.1,0.2-0.1,0.3,0
		c0.6,0.5,0.9,1.3,0.8,2.2c0,0.2,0.1,0.3,0.5,0.5c0,0,0.1,0.1,0.1,0.1C57.7,27.3,57.8,27.4,57.7,27.4 M59.3,22.5
		c0.1,0,0.2,0,0.2,0.1c0.1,0.2,0.4,0.4,0.9,0.5c0.7,0.3,1.8,0.7,1.8,2c0,0.1-0.1,0.2-0.2,0.2c-0.1,0-0.2-0.1-0.2-0.2
		c0-1.1-0.8-1.4-1.6-1.7c-0.5-0.2-1-0.4-1.1-0.8C59.2,22.7,59.2,22.6,59.3,22.5 M62.7,26.7l-0.5,0.2L61.8,27
		c-0.2,0.1-0.3,0.2-0.4,0.4l-0.5,0.7l-0.2,0.2c-0.3,0.2-0.6,0.3-1,0.2c-0.1,0-0.2-0.1-0.2-0.2c0-0.1,0.1-0.2,0.2-0.2
		c0.3,0,0.6,0,0.8-0.2l0.1-0.1l0.5-0.7c0.1-0.2,0.4-0.4,0.6-0.5l0.4-0.1l0.4-0.1c0.1,0,0.1-0.1,0.1-0.4c0-0.1,0.1-0.2,0.2-0.2
		c0.1,0,0.2,0.1,0.2,0.2C62.9,26.1,63,26.5,62.7,26.7"/>
	<path class="st1" d="M53.6,17.4c0.2-1.1-0.5-2.3-1.2-3c-0.1-0.1-0.1-0.2,0-0.3c0.1-0.1,0.2-0.1,0.3,0c0.7,0.7,1.4,1.9,1.3,3
		l1.6-0.8l0,0c0-0.1-0.1-0.2-0.1-0.3c-0.3-1-0.9-1.4-1.4-1.7c-0.3-0.2-0.6-0.3-0.7-0.6c-0.1-0.2-0.2-0.5-0.4-0.9
		c-0.3-0.9-0.7-2-1.8-2.6C50.3,9.8,50,9.4,49.7,9c0,0-0.3-0.4-0.3-0.4c0,0-0.1-0.1-0.2-0.1c-0.1,0.5,0,1,0.1,1.5l0.2,0.8
		c0,0.6-0.2,1.1-0.4,1.4l-0.2,0.5l-0.1,0.1c-0.2,0.4-0.3,0.7,0.4,2.5c0.3,1,0.2,1.3,0,1.8L49,17.5c-0.1,0.3,0,0.8,0.2,1.4l0.2,0.9
		c1.1-0.8,2.5-1.5,3.9-2.2L53.6,17.4z M50.6,15.4c-0.3,0.3-0.5,0.8-0.4,1.3c0.1,0.5,0.3,0.9,0.7,1.1C51,17.9,51,18,51,18.1
		c-0.1,0.1-0.2,0.1-0.3,0.1c-0.5-0.3-0.9-0.8-0.9-1.4c-0.1-0.6,0.1-1.3,0.5-1.7c0.1-0.1,0.2-0.1,0.3,0
		C50.7,15.2,50.7,15.3,50.6,15.4 M50.9,12.5c-0.4-0.5-0.6-1.1-0.6-1.7c0-0.1,0.1-0.2,0.2-0.2c0.1,0,0.2,0.1,0.2,0.2
		c0,0.5,0.1,1,0.5,1.4c0.3,0.3,0.6,0.5,0.9,0.5c0.1,0,0.2,0.1,0.2,0.2c0,0.1-0.1,0.2-0.2,0.2C51.6,13.1,51.2,12.9,50.9,12.5"/>
	<path class="st1" d="M65.3,25.1C65.3,25.1,65.2,25.1,65.3,25.1c-0.1-0.1-0.1-0.1-0.1-0.1c0-0.1-0.1-0.3-0.1-0.4
		c-0.1-0.2-0.2-0.4-0.3-0.7c-0.4-0.7-1.1-1.2-1.6-1.6l-0.6-0.4l-0.4-0.4c-0.2-0.3-0.5-0.6-0.9-1c0.9-1,1.1-1.9,1-2.5
		c0-0.9-0.5-1.6-1.3-2c-1-0.5-2.2-0.4-3.5,0.3c-0.1-0.1-0.2-0.1-0.3-0.2c0,0-0.4-0.3-0.4-0.3c0-0.1,0-0.1-0.1-0.2
		c-0.5-1.6-1.5-2.1-2.1-2.5c0,0-0.2-0.1-0.2-0.2c0-0.1-0.2-0.5-0.2-0.5c-0.3-1-0.8-2.6-2.5-3.5c-0.6-0.3-0.8-0.5-1.1-0.9l-0.4-0.4
		c-0.1-0.1-0.3-0.3-1-0.6l-1.3-0.5l-0.4,1.3c-0.3,1-0.1,1.8,0.1,2.4l0.1,0.6c0,0.2,0,0.3-0.2,0.6l-0.3,0.7l0,0.1
		c-0.3,0.9-0.3,1.5,0.3,3.5c0.1,0.5,0.1,0.6,0.1,0.6c0,0-0.1,0.2-0.1,0.2l-0.1,0.3c-0.3,0.8,0,1.6,0.2,2.3L48,20
		c0.1,0.4,0.1,0.6,0,0.8c-0.8,0.4-37,18.1-37.3,18.3h0h0c-2,1-2.1,2.8-1.7,3.8c1.2,2.6,3.2,2.1,4.1,1.7c1.1-0.5,28.4-14,35.8-17.7
		c0,0.8,0,1.6,0.3,2.5c0.2,0.6,0.5,1.1,1,1.7c-0.1,0.5-0.1,0.9,0,1.4c0,0.2,0.1,0.4,0.2,0.6c0.4,1.2,1.1,1.7,1.6,1.9
		c1.3,0.5,2.7-0.4,3.3-1c1.7-0.2,3.4-0.9,4.8-2.1c1.4,0.1,2.6-1.3,3.3-2l0.1-0.2c0.1-0.1,0.1-0.1,0.4-0.2l0.8-0.3l0.2-0.1
		c0.6-0.3,1.5-0.8,1.6-1.8c0-0.3,0-0.5-0.1-0.8c-0.2-0.6-0.6-1-1-1.4L65.3,25.1z"/>
	<path class="st1" d="M40.6,29.3c0.4-0.2,0.7-0.4,1.1-0.5c-0.1-0.5-0.3-0.9-0.5-1.3L40.6,29.3z"/>
	<path class="st2" d="M64.2,25.3c-0.1-0.2-0.1-0.5-0.3-0.8c-0.3-0.5-0.8-0.9-1.3-1.3l-0.7-0.5l-0.5-0.5c-0.3-0.3-0.5-0.7-1.2-1
		c-0.1,0-0.1-0.1-0.2-0.1l-0.6-0.4c1.2-0.8,1.8-1.7,1.8-2.5c0-0.5-0.3-0.9-0.7-1.1c-0.6-0.3-1.8-0.3-3.1,0.6c0,0,0,0,0,0
		c-0.2-0.2-0.5-0.4-0.7-0.6c0,0-0.1,0-0.1-0.1c-0.2-0.1-0.4-0.3-0.5-0.4c-0.1-0.1-0.2-0.2-0.2-0.3c-0.3-1.4-1.1-1.9-1.7-2.2
		c-0.3-0.2-0.5-0.3-0.6-0.5c-0.1-0.2-0.2-0.5-0.3-0.8c-0.3-0.9-0.7-2.2-2-2.8c-0.8-0.4-1.1-0.8-1.4-1.1l-0.3-0.4
		c-0.1-0.1-0.4-0.3-0.6-0.3L48.9,8l-0.1,0.2c-0.2,0.7,0,1.4,0.1,1.9l0.1,0.8c0,0.5-0.1,0.9-0.3,1.2l-0.3,0.5l0,0.1
		c-0.2,0.6-0.3,0.9,0.3,2.8c0.3,0.9,0.2,1.1,0,1.5l-0.1,0.2c-0.2,0.4,0,1,0.2,1.6l0.2,0.9c0,0.1,0,0.2,0,0.3l0,0.4c0,0,0,0,0,0l0,0
		c0,0.4-0.1,0.7-0.2,0.9c0,0,0,0,0,0.1c-0.1,0.1-1.2,0.6-2.9,1.4l-0.3,0.1c0,0,0,0,0,0c-1.1,0.5-2.4,1.2-3.9,1.9l0,0l-0.8,0.4
		c-8.5,4.1-18.7,9.2-25.4,12.5c0,0,0,0,0,0l-0.9,0.4c-2.1,1-3.4,1.7-3.4,1.7l0,0c-1.4,0.6-1.5,1.8-1.2,2.4c0.2,0.5,0.9,1.9,2.7,1.2
		c0.2-0.1,1.3-0.6,2.9-1.4c0,0,0,0,0,0l0.9-0.4c5.8-2.8,14.2-7.1,22.6-11.2l0.1,0l0.4-0.2c3.5-1.7,6.4-3.2,8.3-4.1c0,0,0,0,0,0
		l1.3-0.6c0,0,0,0,0,0c0.2-0.1,0.4-0.2,0.5-0.2c0.1,0.5,0.1,1,0.1,1.5c0,0.8,0,1.6,0.2,2.3c0.2,0.6,0.5,1.1,1.1,1.6c0,0,0,0.1,0,0.1
		c-0.2,0.7-0.2,1.1-0.1,1.5c0,0.2,0.1,0.4,0.1,0.5c0.2,0.7,0.5,1.1,1,1.2c0.7,0.2,1.5-0.1,2.5-1c1.8-0.1,3.6-0.9,4.9-2.2
		c1,0.3,2.1-0.9,2.8-1.6l0.1-0.2c0.3-0.3,0.6-0.4,1-0.5l0.6-0.2l0.2-0.1c0.5-0.3,1-0.5,1-1c0-0.4-0.2-0.7-0.7-1.2
		C64.3,25.8,64.2,25.6,64.2,25.3 M59.9,21.3C59.9,21.3,59.9,21.3,59.9,21.3c-1,0.8-2.6,1.3-4,1.5c0,0,0.1-0.1,0.1-0.1
		c0-0.1,0.1-0.1,0.1-0.2c0.1-0.2,0.2-0.4,0.3-0.5c0.8-0.1,2.2-0.6,2.8-1.1C59.4,21,59.7,21.2,59.9,21.3 M56.7,21.5
		c0-0.1,0.1-0.1,0.1-0.2c0.2,0,0.3,0,0.5,0C57,21.4,56.8,21.5,56.7,21.5 M60.4,17.3c0.2,0.1,0.4,0.3,0.5,0.5c0,0.1,0,0.1,0,0.2
		c0,0.7-0.6,1.5-1.7,2.3c-0.1-0.1-0.3-0.3-0.5-0.4c-0.1-0.1-0.1-0.2-0.2-0.2c0,0,0,0,0,0c-0.1-0.2-0.3-0.4-0.3-0.5
		C58.1,19,58,18.8,58,18.6c-0.1-0.2-0.1-0.3-0.2-0.4c0,0,0-0.1-0.1-0.1l0-0.1c0,0,0,0,0,0l0,0c0,0,0,0,0,0
		C58.9,17.1,59.9,17.1,60.4,17.3 M57.9,19.3C57.9,19.3,57.9,19.3,57.9,19.3C57.9,19.3,57.9,19.3,57.9,19.3
		C57.9,19.3,57.9,19.3,57.9,19.3c0.1,0.1,0.2,0.2,0.2,0.4c-0.2,0.1-0.5,0.1-0.7,0.1c0.1-0.2,0.2-0.5,0.3-0.8
		C57.8,19.1,57.8,19.2,57.9,19.3 M55.1,21c-0.1,0.2-0.3,0.4-0.4,0.6l-0.5,0c-0.8,0-1.9,0-2.8,0.1c-0.1-0.3-0.3-0.6-0.5-0.8
		c0-0.1-0.1-0.1-0.1-0.1c0.5-0.3,1-0.6,1.5-0.9C53.1,20.3,54.4,20.8,55.1,21 M51.6,23.2c0.3-0.1,0.7,0,1,0c0.1,0,0.3,0,0.4,0
		c-0.5,0.4-1,0.7-1.6,1C51.6,23.9,51.6,23.6,51.6,23.2 M55.9,19.5c-0.5-0.1-1.3-0.4-1.9-0.7c0.1-0.1,0.3-0.1,0.4-0.2l2.3-1.2
		C56.5,18.1,56.3,18.8,55.9,19.5 M49.2,18.8c-0.2-0.5-0.3-1-0.2-1.4l0.1-0.2c0.2-0.5,0.3-0.8,0-1.8c-0.6-1.9-0.5-2.1-0.4-2.5
		l0.1-0.1l0.2-0.5c0.2-0.4,0.4-0.8,0.4-1.4L49.3,10c-0.1-0.5-0.2-1-0.1-1.5c0.1,0,0.2,0.1,0.2,0.1c0,0,0.3,0.4,0.3,0.4
		c0.3,0.4,0.6,0.8,1.5,1.2c1.2,0.6,1.5,1.7,1.8,2.6c0.1,0.4,0.2,0.7,0.4,0.9c0.2,0.3,0.4,0.4,0.7,0.6c0.5,0.3,1.1,0.7,1.4,1.7
		c0,0.1,0.1,0.2,0.1,0.3l0,0L54,17.1c0.1-1.2-0.6-2.3-1.3-3c-0.1-0.1-0.2-0.1-0.3,0c-0.1,0.1-0.1,0.2,0,0.3c0.7,0.7,1.4,1.9,1.2,3
		l-0.3,0.1c-1.3,0.7-2.7,1.4-3.9,2.2L49.2,18.8z M45.5,23.7c-0.2,0.6-0.5,1.7-0.6,1.9c-0.2-0.1-1.2-0.6-1.7-0.8L45.5,23.7z
		 M15.4,41.8c-1.6,0.8-2.7,1.3-2.9,1.4c-1.3,0.6-1.9-0.2-2.2-1c0,0,0,0,0-0.1c-0.1-0.4-0.1-1.2,1.1-1.8l2.8-1.4
		c0.3,0.1,0.6,0.5,0.9,1C15.4,40.7,15.6,41.4,15.4,41.8 M17.2,40.9c0-0.6-0.2-1.3-0.4-1.8c-0.2-0.5-0.5-0.8-0.8-1l20.4-10
		c0.4,0.7,0.9,1.5,1.2,2.7C29.8,34.6,22.9,38.2,17.2,40.9 M38.1,27.2l1.5-0.7l-0.7,2.2C38.6,28.2,38.3,27.7,38.1,27.2 M40.6,29.3
		l0.6-1.8c0.2,0.4,0.3,0.8,0.5,1.3C41.3,29,41,29.2,40.6,29.3 M43.3,28c-0.2-0.5-0.3-0.9-0.5-1.3l1.6,0.8
		C44.1,27.6,43.7,27.8,43.3,28 M46.4,26.5l0.7-2.2c0.2,0.4,0.4,0.9,0.6,1.5C47.3,26,46.9,26.2,46.4,26.5 M49.7,24.9
		c-0.1,0-0.2,0.1-0.3,0.1c-0.3-1.1-0.8-1.9-1.2-2.7l0.8-0.4c0,0,0,0,0,0c0.2-0.1,0.4,0,0.5,0.1C49.9,22.6,50,23.9,49.7,24.9
		 M65,27.2c0,0.3-0.4,0.5-0.8,0.7L64,28l-0.5,0.1c-0.4,0.1-0.8,0.2-1.2,0.6l-0.2,0.2c-0.5,0.6-1.6,1.9-2.4,1.5l-0.1,0l-0.1,0.1
		c-0.5,0.5-2.3,2.1-4.8,2.2l-0.1,0l0,0c-0.9,0.8-1.7,1.2-2.2,1c-0.4-0.2-0.7-0.6-0.9-1.4c-0.1-0.4,0-0.7,0.1-1.3l0-0.5l-0.1,0
		c-1.3-1.1-1.3-2.4-1.2-3.7c2.5-0.9,4.1-2.1,5.2-3.5c1.6-0.1,3.6-0.8,4.7-1.7c0.4,0.3,0.6,0.5,0.8,0.8l0.5,0.6c0,0,0.7,0.5,0.7,0.5
		c0.4,0.3,0.9,0.7,1.2,1.1c0.1,0.2,0.1,0.3,0.2,0.4c0,0.1,0.1,0.2,0.1,0.3c0,0.1,0,0.2,0.1,0.3c0.1,0.3,0.2,0.5,0.6,0.7
		c0.3,0.3,0.5,0.5,0.5,0.7C65,27.1,65,27.1,65,27.2"/>
	<path class="st2" d="M50.3,15.1c-0.4,0.4-0.6,1-0.5,1.7c0.1,0.6,0.4,1.1,0.9,1.4c0.1,0.1,0.2,0,0.3-0.1c0.1-0.1,0-0.2-0.1-0.3
		c-0.4-0.3-0.7-0.7-0.7-1.1c-0.1-0.5,0.1-1,0.4-1.3c0.1-0.1,0.1-0.2,0-0.3C50.5,15,50.4,15,50.3,15.1"/>
	<path class="st2" d="M60.3,23.6c0.8,0.3,1.5,0.6,1.6,1.7c0,0.1,0.1,0.2,0.2,0.2c0.1,0,0.2-0.1,0.2-0.2c0-1.3-1.1-1.7-1.8-2
		c-0.4-0.2-0.8-0.3-0.9-0.5c0-0.1-0.1-0.2-0.2-0.1c-0.1,0-0.2,0.1-0.1,0.2C59.3,23.2,59.8,23.4,60.3,23.6"/>
	<path class="st2" d="M62.7,25.8c-0.1,0-0.2,0.1-0.2,0.2c0,0.3,0,0.3-0.1,0.4l-0.4,0.1l-0.4,0.1c-0.2,0.1-0.5,0.3-0.6,0.5l-0.5,0.7
		l-0.1,0.1c-0.2,0.1-0.5,0.2-0.8,0.2c-0.1,0-0.2,0.1-0.2,0.2c0,0.1,0.1,0.2,0.2,0.2c0.4,0,0.7-0.1,1-0.2l0.2-0.2l0.5-0.7
		c0.1-0.2,0.3-0.3,0.4-0.4l0.3-0.1l0.5-0.2c0.3-0.2,0.3-0.6,0.3-0.7C62.9,25.9,62.8,25.8,62.7,25.8"/>
	<path class="st2" d="M57.1,26.5c0.1-0.9-0.2-1.7-0.8-2.2c-0.1-0.1-0.2-0.1-0.3,0c-0.1,0.1-0.1,0.2,0,0.3c0.5,0.4,0.7,1.1,0.7,1.9
		c-0.1,0.5,0.4,0.8,0.7,0.9c0.1,0.1,0.2,0,0.3,0c0.1,0,0.1-0.1,0.1-0.2c0-0.1-0.1-0.1-0.1-0.1C57.2,26.9,57.1,26.7,57.1,26.5"/>
	<path class="st2" d="M52.5,28.9c-0.2-0.3,0-0.6,0.3-1l0.3-0.5c0.2-0.4,0.1-1-0.3-1.2c-0.1,0-0.2,0-0.3,0.1c0,0.1,0,0.2,0.1,0.3
		c0.3,0.2,0.2,0.6,0.1,0.7l-0.3,0.5c-0.3,0.4-0.6,0.9-0.3,1.5c0.1,0.1,0.2,0.1,0.3,0.1C52.5,29.1,52.6,29,52.5,28.9"/>
	<path class="st2" d="M56.4,29.8L56.4,29.8l-0.1,0.1C56.2,30,56.1,30,55.9,30c-0.2,0-0.4,0-0.6,0.1l-0.5,0.4l-0.4,0.4
		c-0.4,0.2-0.9,0.1-1.2-0.3c-0.1-0.1-0.2-0.1-0.3,0c-0.1,0.1-0.1,0.2,0,0.3c0.4,0.5,1.2,0.7,1.7,0.3l0.5-0.5l0.4-0.4
		c0.1-0.1,0.2-0.1,0.4-0.1c0.2,0,0.4,0,0.6-0.1l0,0l0.2-0.3c-0.1,0.1,0.2-0.1-0.1-0.2C56.7,29.6,56.5,29.8,56.4,29.8"/>
	<path class="st2" d="M52.2,13c0-0.1-0.1-0.2-0.2-0.2c-0.3,0-0.6-0.2-0.9-0.5c-0.3-0.4-0.5-1-0.5-1.4c0-0.1-0.1-0.2-0.2-0.2
		c-0.1,0-0.2,0.1-0.2,0.2c-0.1,0.6,0.2,1.2,0.6,1.7c0.3,0.4,0.7,0.6,1.1,0.7C52.1,13.2,52.2,13.1,52.2,13"/>
	<g>
		<path class="st3" d="M52,19.4c0.1-0.1,0.4-0.2,1-0.5c0.4-0.2,0.8-0.4,1.2-0.6c0,0,1.7-0.9,2.1-1.1c-0.2-0.2-0.4-0.3-0.6-0.5
			c0,0,0,0,0,0c-0.2,0.1-1.3,0.7-1.9,1c0,0,0,0,0,0c-0.2,0.1-0.4,0.2-0.4,0.2c-1.4,0.7-2.8,1.4-4,2.2c0,0.1,0,0.2,0,0.3
			c0.3,0,0.5,0,0.8,0.1C50.9,20.1,51.4,19.8,52,19.4"/>
		<path class="st3" d="M56.4,22c-0.1,0.2-0.2,0.3-0.3,0.5c0,0.1-0.1,0.1-0.1,0.2c0,0-0.1,0.1-0.1,0.1c1.4-0.2,3-0.7,4-1.5
			c0,0,0,0,0,0c-0.3-0.1-0.5-0.3-0.7-0.5C58.6,21.3,57.2,21.9,56.4,22"/>
		<path class="st3" d="M46.8,23.7c-0.1-0.2-0.2-0.4-0.3-0.5c-0.1,0-0.2,0.1-0.4,0.2l-0.2,0.1c0,0.1-0.7,2.5-0.7,2.5
			c0,0.1-0.1,0.1-0.1,0.1c-0.1,0-0.1,0-0.2,0c0,0-2.1-1-2.2-1c-0.1,0.1-0.4,0.2-0.6,0.3c0.2,0.3,0.3,0.5,0.5,0.8
			c0.2,0.1,2.1,1,2.3,1.1c0.1-0.1,1-0.5,1.1-0.5c0-0.1,0.9-2.7,1-2.9C46.9,23.8,46.8,23.7,46.8,23.7"/>
		<path class="st3" d="M41.7,25.5l-0.6,0.3c-0.1,0.1-0.2,0.1-0.3,0.2c0.1,0.1,0.1,0.2,0.2,0.4c0.1,0.1,0.1,0.2,0.2,0.3
			c0.1,0.1,0.1,0.3,0.2,0.3l0,0c0.2,0.4,0.4,0.9,0.6,1.5c0,0.1,0,0.1,0.1,0.2c0.2-0.1,0.8-0.4,1-0.5c0-0.1,0-0.2-0.1-0.2
			c-0.2-0.7-0.5-1.2-0.7-1.7L41.7,25.5z"/>
		<path class="st3" d="M36.8,27.9c0.4,0.7,0.8,1.4,1.2,2.5c0,0.1,0,0.1,0.1,0.2c0.2-0.1,0.8-0.4,1-0.5l-0.1-0.4
			c-0.3-1-0.7-1.7-1.1-2.3C37.5,27.5,37,27.8,36.8,27.9"/>
		<path class="st3" d="M40.4,26.1c-0.1,0.1-0.3,0.1-0.4,0.2c0,0.1-0.9,2.9-1,3l0.1,0.2c0.1,0.2,0.1,0.3,0.2,0.5
			c0.1-0.1,0.2-0.1,0.3-0.1c0.2-0.1,0.4-0.2,0.5-0.2c0-0.1,0.8-2.4,0.8-2.6C40.8,26.9,40.5,26.3,40.4,26.1"/>
		<path class="st3" d="M46.9,23c0.1,0.1,0.2,0.4,0.4,0.7c0,0,0,0,0,0.1c0.2,0.5,0.5,1,0.7,1.7c0,0.1,0,0.1,0.1,0.2
			c0.4-0.2,0.7-0.3,1-0.5c0-0.1,0-0.1-0.1-0.2c-0.3-1-0.7-1.7-1.1-2.4C47.6,22.6,47.1,22.9,46.9,23"/>
		<path class="st3" d="M57.1,20.7C57,20.7,57,20.7,57.1,20.7C57,20.9,57,20.9,57,20.9c0.7,0.1,1.4-0.1,1.9-0.4c0,0,0,0,0,0
			c0,0,0,0,0,0c-0.1-0.1-0.1-0.1-0.2-0.2c-0.1-0.1-0.2-0.2-0.2-0.3c-0.4,0.1-0.7,0.2-1.1,0.1C57.3,20.2,57.1,20.5,57.1,20.7"/>
		<path class="st3" d="M51.5,22.1c0.1,0.2,0.1,0.5,0.1,0.8c0.4-0.1,0.7,0,1.1,0c0.3,0,0.6,0,0.9,0c0,0,0,0,0,0
			c0.3-0.3,0.6-0.6,0.8-0.9c-0.1,0-0.2,0-0.2,0C53.4,21.9,52.3,21.9,51.5,22.1"/>
		<path class="st3" d="M55.3,20.6C55.4,20.6,55.4,20.5,55.3,20.6c0.1-0.1,0.3-0.5,0.4-0.8c-0.6-0.1-1.6-0.5-2.1-0.8
			c-0.2,0.1-0.4,0.2-0.5,0.2c-0.2,0.1-0.4,0.2-0.5,0.3C53.5,20.1,54.7,20.5,55.3,20.6C55.3,20.6,55.3,20.6,55.3,20.6"/>
		<path class="st3" d="M49.8,21.8c0.1,0.2,0.3,0.4,0.3,0.6c0.2,0.6,0.2,1.5,0,2.2l0,0l0.1,0.2c0.2-0.1,0.4-0.1,0.6-0.2c0,0,0,0,0,0
			c0.1,0,0.2-0.1,0.2-0.1c0.2-0.7,0.3-1.3,0.2-1.9c0,0,0,0,0-0.1c0-0.2-0.1-0.3-0.1-0.5l0,0c-0.1-0.4-0.3-0.7-0.5-0.9
			c-0.1-0.1-0.2-0.1-0.2-0.2l0,0c-0.2-0.2-0.5-0.2-0.8-0.2c0,0.3-0.1,0.6-0.2,0.8C49.5,21.6,49.6,21.7,49.8,21.8"/>
		<path class="st3" d="M55.7,20.7L55.7,20.7L55.6,21c0,0,0,0,0,0c-0.2,0.3-0.4,0.6-0.6,0.9c0,0,0,0,0,0c-0.3,0.5-1,1.1-1.2,1.3
			c-0.7,0.6-1.5,1.2-2.4,1.6c0,0,0,0,0,0c-0.3,0.2-0.8,0.3-1,0.4c0,0,0,0,0,0c0,0.2,0.1,0.4,0.1,0.7c0,0.1,0,0.3,0,0.4
			c4.4-1.7,5.9-4,7.1-7.8c0,0,0,0,0,0l-0.1-0.4c0,0,0-0.1-0.1-0.1c-0.1-0.1-0.2-0.2-0.2-0.2C56.7,18.6,56.3,19.7,55.7,20.7"/>
		<path class="st3" d="M15.6,38.3c-0.1,0.1-0.7,0.3-1,0.5c0.3,0.2,0.6,0.5,0.9,1c0.1,0.2,0.2,0.4,0.3,0.6c0.1,0.4,0.2,0.8,0.1,1.1
			c0.3-0.2,0.9-0.4,1-0.5c0.1-0.3,0.1-0.7-0.1-1.2c-0.1-0.2-0.1-0.4-0.2-0.6C16.2,38.8,15.9,38.4,15.6,38.3"/>
	</g>
	<g>
		<g id="_x34_a_x5F_ScriptA_x5F_SecondarySolidPositive_2_">
			<path class="st0" d="M65.4,31.1h-0.3V32h-0.2v-0.9h-0.3v-0.2h0.8V31.1z M66.8,32h-0.2v-0.8h0L66.3,32h-0.2l-0.3-0.8h0V32h-0.2
				v-1.1H66l0.2,0.7h0l0.2-0.7h0.4V32z"/>
		</g>
	</g>
</g>
</svg>
